<svg width="24" height="14" viewBox="0 0 24 14" fill="none" xmlns="http://www.w3.org/2000/svg">
<path d="M8.51951 4.36161C8.51951 5.4442 8.36326 6.5798 8.05076 7.76842C7.74384 8.95145 7.33369 9.95033 6.82029 10.7651C6.31248 11.5742 5.68748 12.1769 4.94529 12.5731C4.20869 12.9693 3.36047 13.1674 2.40065 13.1674C1.64172 13.1674 0.9665 13.0725 0.374983 12.8828V11.4933C1.15623 11.7444 1.84262 11.87 2.43413 11.87C3.55021 11.87 4.45143 11.4877 5.13782 10.7232C5.8242 9.95871 6.34596 8.75893 6.70311 7.12388H6.6194C6.3348 7.52567 5.9665 7.84933 5.51449 8.09487C5.06806 8.33482 4.56583 8.4548 4.00779 8.4548C3.05913 8.4548 2.3309 8.17857 1.82309 7.62612C1.31527 7.07366 1.06137 6.27009 1.06137 5.2154C1.06137 4.36719 1.24273 3.58594 1.60545 2.87165C1.96817 2.15737 2.4732 1.59933 3.12052 1.19755C3.77342 0.790179 4.51003 0.586496 5.33034 0.586496C6.3348 0.586496 7.11605 0.904576 7.67409 1.54074C8.23771 2.1769 8.51951 3.11719 8.51951 4.36161ZM5.24663 1.85882C4.4319 1.85882 3.779 2.16853 3.28793 2.78795C2.79686 3.40179 2.55132 4.18862 2.55132 5.14844C2.55132 5.82366 2.6992 6.34263 2.99496 6.70536C3.29072 7.0625 3.73157 7.24107 4.3175 7.24107C4.81974 7.24107 5.27454 7.12109 5.6819 6.88114C6.08927 6.6356 6.41572 6.28962 6.66125 5.84319C6.90679 5.39118 7.02956 4.82757 7.02956 4.15234C7.02956 3.44364 6.87052 2.8856 6.55244 2.47824C6.23436 2.06529 5.79909 1.85882 5.24663 1.85882ZM9.35657 12.3471C9.35657 11.923 9.47375 11.5798 9.70813 11.3175C9.94809 11.0552 10.2717 10.9241 10.6791 10.9241C10.9302 10.9241 11.1311 11.0022 11.2818 11.1585C11.438 11.3092 11.5162 11.5352 11.5162 11.8365C11.5162 12.2383 11.4018 12.5731 11.173 12.841C10.9442 13.1088 10.6345 13.2427 10.2438 13.2427C9.95925 13.2427 9.73882 13.1646 9.58257 13.0084C9.4319 12.8521 9.35657 12.6317 9.35657 12.3471ZM14.789 13L21.1841 2.09319H15.2327L15.5089 0.762277H23.034L22.808 1.95926L16.4129 13H14.789Z" fill="white"/>
</svg>
